<svg width="20" height="19" viewBox="0 0 20 19" fill="none" xmlns="http://www.w3.org/2000/svg">
<path d="M4.78947 1.61363C3.70758 1.77194 2.92695 2.06666 2.31779 2.614C1 3.79878 1 5.70605 1 9.52059C1 13.3351 1 15.2424 2.31779 16.428C3.63558 17.6136 5.75674 17.6128 10 17.6128C14.2423 17.6128 16.3644 17.6128 17.6822 16.428C19 15.2432 19 13.3351 19 9.52059C19 5.70605 19 3.79794 17.6822 2.61316C17.0731 2.06582 16.2924 1.7711 15.2105 1.61279" stroke="#717171" stroke-width="1.25" stroke-linecap="round" stroke-linejoin="round"/>
<path d="M7.63158 3.71892C8.09768 3.29284 9.33684 1.61377 10 1.61377M10 1.61377C10.6632 1.61377 11.9023 3.29284 12.3684 3.71892M10 1.61377V8.35026M19 10.8764H14.3333C13.5356 10.8764 12.9094 11.4693 12.5569 12.0949C12.1752 12.7753 11.4106 13.4026 10 13.4026C8.58937 13.4026 7.82484 12.7753 7.44211 12.0949C7.09158 11.4693 6.46442 10.8764 5.66674 10.8764H1" stroke="#717171" stroke-width="1.25" stroke-linecap="round" stroke-linejoin="round"/>
</svg>
